<svg width="33" height="33" viewBox="0 0 33 33" fill="none" xmlns="http://www.w3.org/2000/svg">
<path d="M24.7447 18.0173C24.7605 16.7907 25.0863 15.5881 25.6918 14.5213C26.2972 13.4546 27.1627 12.5582 28.2077 11.9158C27.5438 10.9678 26.6681 10.1875 25.65 9.63713C24.6319 9.08673 23.4994 8.7813 22.3426 8.74511C19.875 8.48608 17.4827 10.2217 16.2252 10.2217C14.9434 10.2217 13.0074 8.77082 10.9225 8.81371C9.57399 8.85728 8.25975 9.24942 7.10783 9.95193C5.95592 10.6544 5.00563 11.6434 4.34955 12.8223C1.50759 17.7428 3.62744 24.9743 6.34984 28.9517C7.71192 30.8994 9.30379 33.0749 11.3868 32.9977C13.425 32.9132 14.1863 31.698 16.6467 31.698C19.0842 31.698 19.7985 32.9977 21.9237 32.9487C24.1109 32.9132 25.4889 30.9924 26.8032 29.0264C27.7819 27.6386 28.5349 26.1049 29.0345 24.4819C27.7638 23.9445 26.6795 23.0449 25.9166 21.8953C25.1537 20.7457 24.7462 19.397 24.7447 18.0173Z" fill="#00798E"/>
<path d="M20.7278 6.12949C21.9204 4.69789 22.5079 2.8578 22.3656 1C20.5437 1.19136 18.8608 2.06212 17.6521 3.4388C17.0612 4.11134 16.6085 4.89376 16.3202 5.74133C16.0318 6.58889 15.9133 7.48499 15.9714 8.37838C16.8827 8.38776 17.7842 8.19024 18.6081 7.8007C19.432 7.41115 20.1568 6.83974 20.7278 6.12949Z" fill="#00798E"/>
</svg>
