<svg width="33" height="33" viewBox="0 0 33 33" fill="none" xmlns="http://www.w3.org/2000/svg">
<path d="M8.94141 24.0973C8.94141 24.8286 9.53828 25.4255 10.2727 25.4255H11.7945V29.188C11.7945 30.1411 12.5602 30.9192 13.5008 30.9192C14.4445 30.9192 15.207 30.1442 15.207 29.188V25.4223H17.8633V29.1848C17.8633 30.138 18.6289 30.9161 19.5695 30.9161C20.5133 30.9161 21.2758 30.1411 21.2758 29.1848V25.4223H22.7977C23.532 25.4223 24.1289 24.8255 24.1289 24.0942V11.7442H8.94141V24.0973ZM20.1008 5.34422L21.5039 3.31296C21.5852 3.19421 21.5664 3.03484 21.457 2.95671C21.3477 2.88171 21.1914 2.91922 21.1102 3.03797L19.6539 5.15046C18.6945 4.77234 17.6258 4.56296 16.5039 4.56296C15.382 4.56296 14.3133 4.77234 13.3539 5.15046L11.8977 3.04109C11.8164 2.92234 11.6602 2.88172 11.5508 2.95984C11.4414 3.03484 11.4227 3.19109 11.5039 3.31609L12.907 5.34734C10.6758 6.38484 9.11328 8.35046 8.91328 10.6473H24.1008C23.8945 8.34734 22.3289 6.38172 20.1008 5.34422ZM13.2977 8.54734C13.1314 8.54734 12.9689 8.49804 12.8306 8.40567C12.6924 8.3133 12.5846 8.18201 12.521 8.02841C12.4574 7.8748 12.4407 7.70578 12.4732 7.54272C12.5056 7.37965 12.5857 7.22987 12.7032 7.1123C12.8208 6.99474 12.9706 6.91468 13.1337 6.88224C13.2967 6.84981 13.4657 6.86645 13.6193 6.93008C13.773 6.9937 13.9042 7.10145 13.9966 7.23969C14.089 7.37793 14.1383 7.54045 14.1383 7.70671C14.1377 7.92948 14.049 8.14297 13.8914 8.30049C13.7339 8.45801 13.5204 8.54676 13.2977 8.54734ZM19.8102 8.54734C19.6439 8.54734 19.4814 8.49804 19.3431 8.40567C19.2049 8.3133 19.0971 8.18201 19.0335 8.02841C18.9699 7.8748 18.9532 7.70578 18.9857 7.54272C19.0181 7.37965 19.0982 7.22987 19.2157 7.1123C19.3333 6.99474 19.4831 6.91468 19.6462 6.88224C19.8092 6.84981 19.9782 6.86645 20.1318 6.93008C20.2855 6.9937 20.4167 7.10145 20.5091 7.23969C20.6015 7.37793 20.6508 7.54045 20.6508 7.70671C20.6502 7.92948 20.5615 8.14297 20.4039 8.30049C20.2464 8.45801 20.0329 8.54676 19.8102 8.54734ZM26.7914 11.6942C25.8477 11.6942 25.0852 12.4692 25.0852 13.4255V20.188C25.0852 21.1411 25.8508 21.9192 26.7914 21.9192C27.7352 21.9192 28.4977 21.1442 28.4977 20.188V13.4223C28.5008 12.4661 27.7383 11.6942 26.7914 11.6942ZM6.21016 11.6942C5.26641 11.6942 4.50391 12.4692 4.50391 13.4255V20.188C4.50391 21.1411 5.26953 21.9192 6.21016 21.9192C7.15391 21.9192 7.91641 21.1442 7.91641 20.188V13.4223C7.91641 12.4661 7.15078 11.6942 6.21016 11.6942Z" fill="#00798E"/>
</svg>
